# xmcd CD database file generated by libcdaudio 0.99.6
# 
# Track frame offsets:
#       150
#       19556
#       35354
#       65064
#       93920
#       114508
#       133083
#       148292
#       166401
# 
# Disc length: 2454 seconds
# 
# Revision: 1
# Processed by: cddbd v1.4PL0 Copyright (c) Steve Scherf et al.
# Submitted via: libcdaudio 0.99.6
# 
DISCID=7b099409
DTITLE=Midnight Ramblers - break free
DYEAR=1900
DGENRE=
TTITLE0=Break Free
TTITLE1=Not the Only One
TTITLE2=Media in Blue
TTITLE3=Stealaway
TTITLE4=Someday Baby
TTITLE5=The Way it is
TTITLE6=Comin' Around
TTITLE7=Funky
TTITLE8=Playin' Possum
EXTD=
EXTT0=
EXTT1=
EXTT2=
EXTT3=
EXTT4=
EXTT5=
EXTT6=
EXTT7=
EXTT8=
PLAYORDER=
